<svg id="visual" viewBox="0 0 900 600" width="900" height="600" xmlns="http://www.w3.org/2000/svg" xmlns:xlink="http://www.w3.org/1999/xlink" version="1.1"><rect x="0" y="0" width="900" height="600" fill="#001c21"></rect><defs><linearGradient id="grad1_0" x1="33.3%" y1="0%" x2="100%" y2="100%"><stop offset="20%" stop-color="#3d9ba1" stop-opacity="1"></stop><stop offset="80%" stop-color="#3d9ba1" stop-opacity="1"></stop></linearGradient></defs><defs><linearGradient id="grad1_1" x1="33.3%" y1="0%" x2="100%" y2="100%"><stop offset="20%" stop-color="#3d9ba1" stop-opacity="1"></stop><stop offset="80%" stop-color="#32878e" stop-opacity="1"></stop></linearGradient></defs><defs><linearGradient id="grad1_2" x1="33.3%" y1="0%" x2="100%" y2="100%"><stop offset="20%" stop-color="#28737b" stop-opacity="1"></stop><stop offset="80%" stop-color="#32878e" stop-opacity="1"></stop></linearGradient></defs><defs><linearGradient id="grad1_3" x1="33.3%" y1="0%" x2="100%" y2="100%"><stop offset="20%" stop-color="#28737b" stop-opacity="1"></stop><stop offset="80%" stop-color="#1f6068" stop-opacity="1"></stop></linearGradient></defs><defs><linearGradient id="grad1_4" x1="33.3%" y1="0%" x2="100%" y2="100%"><stop offset="20%" stop-color="#164e55" stop-opacity="1"></stop><stop offset="80%" stop-color="#1f6068" stop-opacity="1"></stop></linearGradient></defs><defs><linearGradient id="grad1_5" x1="33.3%" y1="0%" x2="100%" y2="100%"><stop offset="20%" stop-color="#164e55" stop-opacity="1"></stop><stop offset="80%" stop-color="#0d3c43" stop-opacity="1"></stop></linearGradient></defs><defs><linearGradient id="grad1_6" x1="33.3%" y1="0%" x2="100%" y2="100%"><stop offset="20%" stop-color="#052c32" stop-opacity="1"></stop><stop offset="80%" stop-color="#0d3c43" stop-opacity="1"></stop></linearGradient></defs><defs><linearGradient id="grad1_7" x1="33.3%" y1="0%" x2="100%" y2="100%"><stop offset="20%" stop-color="#052c32" stop-opacity="1"></stop><stop offset="80%" stop-color="#001c21" stop-opacity="1"></stop></linearGradient></defs><defs><linearGradient id="grad2_0" x1="0%" y1="0%" x2="66.7%" y2="100%"><stop offset="20%" stop-color="#3d9ba1" stop-opacity="1"></stop><stop offset="80%" stop-color="#3d9ba1" stop-opacity="1"></stop></linearGradient></defs><defs><linearGradient id="grad2_1" x1="0%" y1="0%" x2="66.7%" y2="100%"><stop offset="20%" stop-color="#32878e" stop-opacity="1"></stop><stop offset="80%" stop-color="#3d9ba1" stop-opacity="1"></stop></linearGradient></defs><defs><linearGradient id="grad2_2" x1="0%" y1="0%" x2="66.7%" y2="100%"><stop offset="20%" stop-color="#32878e" stop-opacity="1"></stop><stop offset="80%" stop-color="#28737b" stop-opacity="1"></stop></linearGradient></defs><defs><linearGradient id="grad2_3" x1="0%" y1="0%" x2="66.7%" y2="100%"><stop offset="20%" stop-color="#1f6068" stop-opacity="1"></stop><stop offset="80%" stop-color="#28737b" stop-opacity="1"></stop></linearGradient></defs><defs><linearGradient id="grad2_4" x1="0%" y1="0%" x2="66.7%" y2="100%"><stop offset="20%" stop-color="#1f6068" stop-opacity="1"></stop><stop offset="80%" stop-color="#164e55" stop-opacity="1"></stop></linearGradient></defs><defs><linearGradient id="grad2_5" x1="0%" y1="0%" x2="66.7%" y2="100%"><stop offset="20%" stop-color="#0d3c43" stop-opacity="1"></stop><stop offset="80%" stop-color="#164e55" stop-opacity="1"></stop></linearGradient></defs><defs><linearGradient id="grad2_6" x1="0%" y1="0%" x2="66.7%" y2="100%"><stop offset="20%" stop-color="#0d3c43" stop-opacity="1"></stop><stop offset="80%" stop-color="#052c32" stop-opacity="1"></stop></linearGradient></defs><defs><linearGradient id="grad2_7" x1="0%" y1="0%" x2="66.7%" y2="100%"><stop offset="20%" stop-color="#001c21" stop-opacity="1"></stop><stop offset="80%" stop-color="#052c32" stop-opacity="1"></stop></linearGradient></defs><g transform="translate(900, 0)"><path d="M0 432.7C-26.7 427.9 -53.4 423.2 -84.1 422.7C-114.8 422.2 -149.4 425.9 -165.6 399.7C-181.7 373.6 -179.3 317.5 -197.2 295.2C-215.1 272.8 -253.3 284.2 -272.2 272.2C-291.2 260.3 -290.9 225 -296.8 198.3C-302.8 171.7 -314.9 153.6 -323.4 133.9C-331.8 114.3 -336.5 93 -354.1 70.4C-371.7 47.8 -402.2 23.9 -432.7 0L0 0Z" fill="#032429"></path><path d="M0 378.6C-23.4 374.5 -46.7 370.3 -73.6 369.9C-100.4 369.4 -130.8 372.7 -144.9 349.8C-159 326.9 -156.9 277.8 -172.6 258.3C-188.2 238.7 -221.6 248.7 -238.2 238.2C-254.8 227.7 -254.5 196.9 -259.7 173.5C-264.9 150.2 -275.6 134.4 -282.9 117.2C-290.3 100 -294.4 81.4 -309.8 61.6C-325.2 41.9 -351.9 20.9 -378.6 0L0 0Z" fill="#08343a"></path><path d="M0 324.5C-20 321 -40.1 317.4 -63.1 317C-86.1 316.7 -112.1 319.4 -124.2 299.8C-136.3 280.2 -134.5 238.1 -147.9 221.4C-161.3 204.6 -190 213.1 -204.2 204.2C-218.4 195.2 -218.2 168.8 -222.6 148.8C-227.1 128.8 -236.2 115.2 -242.5 100.5C-248.8 85.7 -252.4 69.8 -265.5 52.8C-278.7 35.9 -301.6 17.9 -324.5 0L0 0Z" fill="#11454c"></path><path d="M0 270.4C-16.7 267.5 -33.4 264.5 -52.6 264.2C-71.7 263.9 -93.4 266.2 -103.5 249.8C-113.6 233.5 -112.1 198.4 -123.3 184.5C-134.5 170.5 -158.3 177.6 -170.1 170.1C-182 162.7 -181.8 140.6 -185.5 124C-189.2 107.3 -196.8 96 -202.1 83.7C-207.4 71.4 -210.3 58.1 -221.3 44C-232.3 29.9 -251.4 14.9 -270.4 0L0 0Z" fill="#1a575f"></path><path d="M0 216.3C-13.4 214 -26.7 211.6 -42 211.4C-57.4 211.1 -74.7 213 -82.8 199.9C-90.9 186.8 -89.7 158.8 -98.6 147.6C-107.6 136.4 -126.6 142.1 -136.1 136.1C-145.6 130.1 -145.4 112.5 -148.4 99.2C-151.4 85.8 -157.5 76.8 -161.7 67C-165.9 57.1 -168.2 46.5 -177 35.2C-185.8 23.9 -201.1 12 -216.3 0L0 0Z" fill="#246a71"></path><path d="M0 162.2C-10 160.5 -20 158.7 -31.5 158.5C-43 158.3 -56 159.7 -62.1 149.9C-68.1 140.1 -67.2 119.1 -74 110.7C-80.7 102.3 -95 106.6 -102.1 102.1C-109.2 97.6 -109.1 84.4 -111.3 74.4C-113.5 64.4 -118.1 57.6 -121.3 50.2C-124.4 42.9 -126.2 34.9 -132.8 26.4C-139.4 17.9 -150.8 9 -162.2 0L0 0Z" fill="#2d7d84"></path><path d="M0 108.2C-6.7 107 -13.4 105.8 -21 105.7C-28.7 105.6 -37.4 106.5 -41.4 99.9C-45.4 93.4 -44.8 79.4 -49.3 73.8C-53.8 68.2 -63.3 71 -68.1 68.1C-72.8 65.1 -72.7 56.3 -74.2 49.6C-75.7 42.9 -78.7 38.4 -80.8 33.5C-82.9 28.6 -84.1 23.3 -88.5 17.6C-92.9 12 -100.5 6 -108.2 0L0 0Z" fill="#389197"></path><path d="M0 54.1C-3.3 53.5 -6.7 52.9 -10.5 52.8C-14.3 52.8 -18.7 53.2 -20.7 50C-22.7 46.7 -22.4 39.7 -24.7 36.9C-26.9 34.1 -31.7 35.5 -34 34C-36.4 32.5 -36.4 28.1 -37.1 24.8C-37.8 21.5 -39.4 19.2 -40.4 16.7C-41.5 14.3 -42.1 11.6 -44.3 8.8C-46.5 6 -50.3 3 -54.1 0L0 0Z" fill="#3d9ba1"></path></g><g transform="translate(0, 600)"><path d="M0 -432.7C28.5 -423.2 57.1 -413.8 78 -392.3C99 -370.8 112.4 -337.4 136.6 -329.8C160.9 -322.3 196.1 -340.7 228.9 -342.6C261.7 -344.4 292.2 -329.7 304.1 -304.1C315.9 -278.4 309 -241.8 328.4 -219.5C347.8 -197.1 393.5 -188.8 399.7 -165.6C406 -142.3 372.8 -104 371.7 -73.9C370.6 -43.8 401.7 -21.9 432.7 0L0 0Z" fill="#032429"></path><path d="M0 -378.6C25 -370.3 49.9 -362.1 68.3 -343.3C86.6 -324.5 98.3 -295.2 119.5 -288.6C140.8 -282 171.6 -298.1 200.3 -299.7C229 -301.4 255.7 -288.5 266 -266C276.4 -243.6 270.4 -211.6 287.4 -192C304.4 -172.4 344.3 -165.2 349.8 -144.9C355.2 -124.5 326.2 -91 325.3 -64.7C324.3 -38.4 351.4 -19.2 378.6 0L0 0Z" fill="#08343a"></path><path d="M0 -324.5C21.4 -317.4 42.8 -310.3 58.5 -294.2C74.2 -278.1 84.3 -253 102.5 -247.4C120.7 -241.7 147 -255.5 171.7 -256.9C196.3 -258.3 219.2 -247.3 228 -228C236.9 -208.8 231.8 -181.4 246.3 -164.6C260.9 -147.8 295.1 -141.6 299.8 -124.2C304.5 -106.7 279.6 -78 278.8 -55.5C278 -32.9 301.2 -16.4 324.5 0L0 0Z" fill="#11454c"></path><path d="M0 -270.4C17.8 -264.5 35.7 -258.6 48.8 -245.2C61.9 -231.8 70.2 -210.8 85.4 -206.1C100.6 -201.4 122.5 -212.9 143.1 -214.1C163.6 -215.3 182.6 -206.1 190 -190C197.4 -174 193.1 -151.2 205.3 -137.2C217.4 -123.2 245.9 -118 249.8 -103.5C253.7 -89 233 -65 232.3 -46.2C231.6 -27.4 251 -13.7 270.4 0L0 0Z" fill="#1a575f"></path><path d="M0 -216.3C14.3 -211.6 28.5 -206.9 39 -196.2C49.5 -185.4 56.2 -168.7 68.3 -164.9C80.4 -161.1 98 -170.4 114.4 -171.3C130.9 -172.2 146.1 -164.8 152 -152C157.9 -139.2 154.5 -120.9 164.2 -109.7C173.9 -98.5 196.7 -94.4 199.9 -82.8C203 -71.2 186.4 -52 185.9 -37C185.3 -21.9 200.8 -11 216.3 0L0 0Z" fill="#246a71"></path><path d="M0 -162.2C10.7 -158.7 21.4 -155.2 29.3 -147.1C37.1 -139.1 42.1 -126.5 51.2 -123.7C60.3 -120.9 73.5 -127.8 85.8 -128.5C98.1 -129.2 109.6 -123.6 114 -114C118.5 -104.4 115.9 -90.7 123.2 -82.3C130.4 -73.9 147.6 -70.8 149.9 -62.1C152.2 -53.4 139.8 -39 139.4 -27.7C139 -16.4 150.6 -8.2 162.2 0L0 0Z" fill="#2d7d84"></path><path d="M0 -108.2C7.1 -105.8 14.3 -103.4 19.5 -98.1C24.7 -92.7 28.1 -84.3 34.2 -82.5C40.2 -80.6 49 -85.2 57.2 -85.6C65.4 -86.1 73.1 -82.4 76 -76C79 -69.6 77.3 -60.5 82.1 -54.9C87 -49.3 98.4 -47.2 99.9 -41.4C101.5 -35.6 93.2 -26 92.9 -18.5C92.7 -11 100.4 -5.5 108.2 0L0 0Z" fill="#389197"></path><path d="M0 -54.1C3.6 -52.9 7.1 -51.7 9.8 -49C12.4 -46.4 14 -42.2 17.1 -41.2C20.1 -40.3 24.5 -42.6 28.6 -42.8C32.7 -43.1 36.5 -41.2 38 -38C39.5 -34.8 38.6 -30.2 41.1 -27.4C43.5 -24.6 49.2 -23.6 50 -20.7C50.7 -17.8 46.6 -13 46.5 -9.2C46.3 -5.5 50.2 -2.7 54.1 0L0 0Z" fill="#3d9ba1"></path></g></svg>