<svg width="32" height="27" viewBox="0 0 32 27" fill="none" xmlns="http://www.w3.org/2000/svg">
<path d="M28.8 0.447968H3.2C1.44 0.447968 0.016 1.91047 0.016 3.69797L0 23.198C0 24.9855 1.44 26.448 3.2 26.448H28.8C30.56 26.448 32 24.9855 32 23.198V3.69797C32 1.91047 30.56 0.447968 28.8 0.447968ZM28.16 7.35422L16.848 14.5367C16.336 14.8617 15.664 14.8617 15.152 14.5367L3.84 7.35422C3.44 7.09422 3.2 6.65547 3.2 6.18422C3.2 5.09547 4.368 4.44547 5.28 5.01422L16 11.823L26.72 5.01422C27.632 4.44547 28.8 5.09547 28.8 6.18422C28.8 6.65547 28.56 7.09422 28.16 7.35422Z" fill="#252323"/>
</svg>
