<svg width="22" height="22" viewBox="0 0 22 22" fill="none" xmlns="http://www.w3.org/2000/svg">
<g clip-path="url(#clip0_184_2049)">
<path d="M11.0051 0.848499C5.39576 0.848499 0.848511 5.39575 0.848511 11.0051C0.848511 16.6144 5.39576 21.1617 11.0051 21.1617C16.6144 21.1617 21.1617 16.6144 21.1617 11.0051C21.1617 5.39575 16.6144 0.848499 11.0051 0.848499Z" stroke="black" stroke-width="1.5" stroke-linecap="round" stroke-linejoin="round"/>
<path d="M6.94244 20.3165V13.0364L11.0051 5.92679L15.0677 13.0364V20.3165" stroke="black" stroke-width="1.5" stroke-linecap="round" stroke-linejoin="round"/>
<path d="M6.94244 13.0364C6.94244 13.0364 8.08685 14.0521 8.97376 14.0521C9.86063 14.0521 11.0051 13.0364 11.0051 13.0364C11.0051 13.0364 12.1495 14.0521 13.0364 14.0521C13.9233 14.0521 15.0677 13.0364 15.0677 13.0364" stroke="black" stroke-width="1.5" stroke-linecap="round" stroke-linejoin="round"/>
</g>
<defs>
<clipPath id="clip0_184_2049">
<rect width="22" height="22" fill="white"/>
</clipPath>
</defs>
</svg>
