<svg width="30" height="22" viewBox="0 0 30 22" fill="none" xmlns="http://www.w3.org/2000/svg">
<path d="M29.2713 7.75251L27.8425 6.99246L14.9835 0.0829145H14.8264C14.7388 0.0470937 14.6479 0.019333 14.5549 0H14.2834H14.0262C13.9286 0.0193457 13.833 0.0470943 13.7405 0.0829145H13.5833L0.724317 6.99246C0.504431 7.11299 0.321535 7.28777 0.194289 7.49898C0.0670428 7.71019 0 7.95027 0 8.19472C0 8.43918 0.0670428 8.67925 0.194289 8.89046C0.321535 9.10167 0.504431 9.27646 0.724317 9.39699L4.28198 11.304V17.8543C4.28198 18.9538 4.73357 20.0083 5.53742 20.7857C6.34126 21.5632 7.43151 22 8.56831 22H19.9985C21.1354 22 22.2256 21.5632 23.0294 20.7857C23.8333 20.0083 24.2849 18.9538 24.2849 17.8543V11.304L27.1424 9.75628V13.7085C27.1424 14.075 27.293 14.4265 27.5609 14.6857C27.8289 14.9449 28.1923 15.0905 28.5712 15.0905C28.9502 15.0905 29.3136 14.9449 29.5815 14.6857C29.8495 14.4265 30 14.075 30 13.7085V8.95477C29.9996 8.7099 29.9319 8.46954 29.8038 8.2583C29.6758 8.04705 29.492 7.8725 29.2713 7.75251ZM21.4273 17.8543C21.4273 18.2208 21.2768 18.5723 21.0088 18.8314C20.7409 19.0906 20.3775 19.2362 19.9985 19.2362H8.56831C8.18938 19.2362 7.82596 19.0906 7.55801 18.8314C7.29007 18.5723 7.13953 18.2208 7.13953 17.8543V12.8379L13.5833 16.2927L13.7976 16.3756H13.9262C14.0448 16.3901 14.1648 16.3901 14.2834 16.3756C14.402 16.3901 14.522 16.3901 14.6406 16.3756H14.7692C14.8451 16.3602 14.9176 16.3321 14.9835 16.2927L21.4273 12.8379V17.8543ZM14.2834 13.5151L4.3677 8.1809L14.2834 2.84673L24.1992 8.1809L14.2834 13.5151Z" fill="black"/>
</svg>
