<svg width="20" height="22" viewBox="0 0 20 22" fill="none" xmlns="http://www.w3.org/2000/svg">
<path d="M8.33317 19.5006C8.33315 19.354 8.30159 19.2092 8.24072 19.0764C8.17985 18.9437 8.09116 18.8262 7.98095 18.7324C7.87073 18.6386 7.74168 18.5707 7.60294 18.5336C7.4642 18.4964 7.31917 18.4909 7.17813 18.5175C5.89798 18.7577 4.28167 18.7938 3.85193 17.5597C3.4772 16.604 2.85649 15.7697 2.05561 15.1454C1.99847 15.1136 1.94401 15.077 1.89279 15.036C1.8227 14.847 1.6982 14.6842 1.53572 14.5689C1.37324 14.4537 1.18042 14.3916 0.982686 14.3907H0.977914C0.719356 14.3906 0.471291 14.4952 0.288017 14.6817C0.104742 14.8681 0.00118537 15.1212 1.37111e-05 15.3856C-0.00380988 16.2008 0.793091 16.7231 1.11638 16.8998C1.49761 17.2914 1.804 17.7523 2.0198 18.2588C2.37601 19.282 3.4112 20.8343 6.38693 20.6342C6.3879 20.6693 6.38883 20.7025 6.38931 20.7328L6.39361 21.0003C6.39361 21.2654 6.49663 21.5197 6.68003 21.7072C6.86342 21.8947 7.11215 22 7.37151 22C7.63086 22 7.87959 21.8947 8.06299 21.7072C8.24638 21.5197 8.34941 21.2654 8.34941 21.0003L8.34464 20.682C8.33986 20.4925 8.33317 20.2182 8.33317 19.5006ZM18.7644 4.37869C18.7955 4.25372 18.826 4.11509 18.8528 3.95888C19.0109 2.84477 18.8731 1.70768 18.4536 0.666768C18.4007 0.531068 18.3193 0.408845 18.2153 0.308668C18.1113 0.208491 17.9871 0.132784 17.8515 0.0868545C17.5033 -0.0332331 16.218 -0.269499 13.7599 1.33652C11.7166 0.844945 9.58957 0.844945 7.54629 1.33652C5.09818 -0.245976 3.81946 -0.0312337 3.47471 0.0820158C3.33571 0.126084 3.20813 0.20139 3.1013 0.302414C2.99447 0.403438 2.9111 0.52762 2.85731 0.665858C2.42929 1.72675 2.29291 2.88704 2.46291 4.02139C2.48679 4.14929 2.51256 4.26743 2.53931 4.37579C1.72919 5.47893 1.29768 6.82449 1.31168 8.20386C1.30904 8.51161 1.32291 8.81928 1.35322 9.12548C1.67984 13.7268 4.61354 15.1082 6.65766 15.5827C6.61517 15.7077 6.57649 15.8414 6.54211 15.983C6.48083 16.2402 6.52184 16.5118 6.65613 16.7382C6.79042 16.9645 7.00704 17.1272 7.25849 17.1906C7.50994 17.2539 7.77569 17.2127 7.99747 17.076C8.21925 16.9393 8.37895 16.7183 8.44156 16.4614C8.50379 16.1283 8.66327 15.8223 8.89901 15.5837C9.04154 15.4561 9.14474 15.289 9.19605 15.1025C9.24735 14.9161 9.24456 14.7184 9.188 14.5336C9.13145 14.3488 9.02356 14.1847 8.87748 14.0614C8.7314 13.9381 8.55341 13.8609 8.36517 13.8391C4.9874 13.4446 3.52102 12.0378 3.30043 8.94195C3.27599 8.69674 3.26499 8.45033 3.26748 8.20387C3.25179 7.22079 3.56949 6.26247 4.16659 5.49171C4.22659 5.41135 4.2905 5.33413 4.35807 5.26032C4.47779 5.12336 4.55829 4.95532 4.59072 4.77466C4.62315 4.59399 4.60627 4.40768 4.54191 4.23619C4.47594 4.05576 4.42514 3.86992 4.39007 3.68067C4.31041 3.14253 4.33654 2.59355 4.46694 2.06586C5.31686 2.31127 6.11677 2.71073 6.82857 3.24522C6.94628 3.32538 7.07947 3.37872 7.21911 3.40163C7.35875 3.42454 7.50158 3.41648 7.63792 3.37801C9.61436 2.82965 11.6981 2.83 13.6743 3.37901C13.8114 3.41744 13.955 3.42503 14.0952 3.40127C14.2354 3.3775 14.3689 3.32295 14.4866 3.24135C15.195 2.70464 15.9916 2.3016 16.8387 2.05125C16.9685 2.56626 16.9975 3.10242 16.9241 3.62894C16.8887 3.83642 16.8334 4.03983 16.7589 4.23621C16.6946 4.4077 16.6777 4.59401 16.7101 4.77468C16.7426 4.95534 16.8231 5.12338 16.9428 5.26034C17.0182 5.34723 17.0937 5.44095 17.1615 5.52882C17.7544 6.28653 18.0667 7.23383 18.0434 8.20386C18.0452 8.4634 18.0329 8.72284 18.0067 8.98099C17.7913 12.0358 16.3192 13.4437 12.9257 13.839C12.7374 13.861 12.5594 13.9384 12.4133 14.0618C12.2673 14.1852 12.1594 14.3494 12.1029 14.5343C12.0464 14.7192 12.0437 14.9169 12.0951 15.1034C12.1464 15.2899 12.2497 15.4571 12.3923 15.5847C12.6355 15.8296 12.7953 16.1479 12.8483 16.4926C12.9144 16.7603 12.9448 17.0358 12.9386 17.3118V19.6451C12.929 20.2924 12.929 20.7776 12.929 21.0002C12.929 21.2654 13.032 21.5196 13.2154 21.7071C13.3988 21.8946 13.6475 21.9999 13.9069 21.9999C14.1663 21.9999 14.415 21.8946 14.5984 21.7071C14.7818 21.5196 14.8848 21.2654 14.8848 21.0002C14.8848 20.7835 14.8848 20.308 14.8944 19.6607V17.3118C14.9022 16.8697 14.8513 16.4286 14.743 16.0006C14.712 15.8601 14.6741 15.7213 14.6293 15.5847C16.117 15.332 17.4687 14.5479 18.4438 13.3719C19.4189 12.1959 19.9542 10.7043 19.9543 9.16259C19.9865 8.8441 20.0015 8.52404 19.9992 8.20386C20.0209 6.823 19.5858 5.47512 18.7644 4.37871L18.7644 4.37869Z" fill="#008F8C"/>
</svg>
