<svg width="20" height="20" viewBox="0 0 20 20" fill="none" xmlns="http://www.w3.org/2000/svg">
<g clip-path="url(#clip0_200_2129)">
<path d="M0.909088 10.0001C0.909088 15.0208 4.97922 19.091 10 19.091C15.0207 19.091 19.0909 15.0208 19.0909 10.0001C19.0909 4.97932 15.0207 0.90918 10 0.90918C4.97922 0.90918 0.909088 4.97932 0.909088 10.0001Z" stroke="#008F8C" stroke-width="1.5" stroke-linecap="round" stroke-linejoin="round"/>
<path d="M10.9091 0.953857C10.9091 0.953857 13.6364 4.54533 13.6364 9.99984C13.6364 15.4544 10.9091 19.0459 10.9091 19.0459" stroke="#008F8C" stroke-width="1.5" stroke-linecap="round" stroke-linejoin="round"/>
<path d="M9.09091 19.0459C9.09091 19.0459 6.36364 15.4544 6.36364 9.99984C6.36364 4.54533 9.09091 0.953857 9.09091 0.953857" stroke="#008F8C" stroke-width="1.5" stroke-linecap="round" stroke-linejoin="round"/>
<path d="M1.48149 13.1819H18.5185" stroke="#008F8C" stroke-width="1.5" stroke-linecap="round" stroke-linejoin="round"/>
<path d="M1.48149 6.81812H18.5185" stroke="#008F8C" stroke-width="1.5" stroke-linecap="round" stroke-linejoin="round"/>
</g>
<defs>
<clipPath id="clip0_200_2129">
<rect width="20" height="20" fill="white"/>
</clipPath>
</defs>
</svg>
