<svg width="20" height="16" viewBox="0 0 20 16" fill="none" xmlns="http://www.w3.org/2000/svg">
<path d="M19.5419 0.463017C19.4096 0.316303 19.2522 0.199852 19.0788 0.120383C18.9053 0.0409142 18.7193 0 18.5315 0C18.3436 0 18.1576 0.0409142 17.9842 0.120383C17.8108 0.199852 17.6534 0.316303 17.5211 0.463017L6.91899 12.1403L2.46469 7.22517C2.32733 7.07922 2.16518 6.96446 1.9875 6.88744C1.80982 6.81042 1.62009 6.77265 1.42914 6.77629C1.23819 6.77992 1.04975 6.82489 0.874602 6.90862C0.699449 6.99236 0.541006 7.11322 0.408318 7.2643C0.275631 7.41539 0.171298 7.59374 0.101276 7.78918C0.031254 7.98462 -0.00308605 8.19331 0.000217618 8.40335C0.00352129 8.61338 0.0444038 8.82064 0.12053 9.0133C0.196657 9.20596 0.306536 9.38023 0.443896 9.52618L5.90859 15.537C6.04088 15.6837 6.19828 15.8001 6.3717 15.8796C6.54512 15.9591 6.73112 16 6.91899 16C7.10685 16 7.29286 15.9591 7.46628 15.8796C7.6397 15.8001 7.79709 15.6837 7.92939 15.537L19.5419 2.76403C19.6863 2.61745 19.8016 2.43955 19.8804 2.24154C19.9593 2.04352 20 1.8297 20 1.61352C20 1.39735 19.9593 1.18352 19.8804 0.985509C19.8016 0.787497 19.6863 0.609597 19.5419 0.463017Z" fill="#008F8C"/>
</svg>
