<svg width="490" height="616" viewBox="0 0 490 616" fill="none" xmlns="http://www.w3.org/2000/svg">
<path d="M338.98 358.081L339.228 357.306L338.82 339.723L335.958 335.63L330.297 338.292L331.936 330.585L330.704 328.138L321.438 321.454L322.117 315.457L324.98 311.779L324.3 309.061L328.25 305.846L338.476 305.71L342.842 314.298L346.927 311.027L352.109 304.207L360.56 302.576L360.288 292.486L365.053 288.128L366.557 283.083H368.196L377.87 291.598L379.781 296.508L377.055 305.367L378.686 308.501L377.734 310.14L369.555 308.501L369.011 313.41L373.649 318.591L378.958 320.774L387.689 316.001L394.229 319.958L393.821 322.821L392.046 325.547L392.862 328.546L394.773 333.039L393.414 335.766L392.59 333.447L390.551 329.769L383.187 329.089L382.508 330.449L381.684 332.36L380.461 337.677L383.459 342.722L385.234 347.351L371.194 346.943L365.197 352.125L359.88 353.484L355.922 357.442L356.882 367.116L350.469 365.213L349.246 363.031L345.704 358.801L338.98 358.081Z" fill="#EBF2F2" stroke="white" stroke-width="0.5"/>
<path d="M158.169 149.102L158.2 149.054L159.2 147.902L159.152 147.494L169.474 149.901L167.787 145.376L170.626 142.153L175.223 141.922L175.655 141.234L177.07 144.296L183.275 147.83L189.407 142.233L193.165 147.215L193.325 150.893L190.255 153.731L193.165 156.338L192.557 159.408L186.577 157.489L177.294 159.944L175.919 160.551L167.635 160.479L169.554 155.57L158.744 151.812L158.169 149.102Z" fill="#EBF2F2" stroke="white" stroke-width="0.5"/>
<path d="M395.492 345.912L394.237 347.959L384.962 346.48L383.459 342.722L380.461 337.677L381.684 332.36L382.508 330.449L383.187 329.089L390.551 329.769L392.59 333.447L393.413 335.766L394.925 345.768L395.492 345.912Z" fill="#EBF2F2" stroke="white" stroke-width="0.5"/>
<path d="M72.3923 25.0506L80.5077 28.0489L77.9891 34.9411L86.0327 40.53L86.9042 43.1525L84.9852 49.445L86.7283 53.4668L83.9298 56.0893L80.6117 55.5616L79.0366 58.7119L70.6492 55.0419L71.1769 48.5735L66.1077 49.2691L62.2619 53.2909L61.5663 66.7474L53.8426 75.8383L50.8123 77.8692L48.3496 76.7019L45.4393 73.5276L50.6204 71.3448L45.0795 69.6178L44.08 64.2528L40.7059 62.9975L40.8978 65.7959L38.2193 66.9153L36.7161 61.2545L26.082 52.8032L20.0854 50.4365L16.3275 53.2749L15.6319 49.6209L11.5461 52.7152L10.6346 49.437L8.09205 53.8026L6.18112 50.8043L2.47918 49.9967L1 45.4393L4.45408 40.3541L8.09205 39.8104V33.6298L10.2668 32.4465L16.9031 41.6254L22.7239 41.5374L23.1797 34.3574L19.6296 25.1785L27.5372 24.4509L29.4482 18.998L44.08 29.9919L50.7163 26.2659L54.4422 29.1763L55.9854 28.4487L54.3463 19.5417L56.4411 18.1744L72.3923 25.0506Z" fill="#EBF2F2" stroke="white" stroke-width="0.5"/>
<path d="M297.787 422.597L296.835 418.24L305.423 413.874L314.689 404.471L322.597 405.831L326.755 413.059L329.889 414.01L328.314 416.952L318.095 420.822L320.006 431.049L325.188 441.955L323.828 448.183L319.191 452.317L320.31 455.523L311.419 453.268L306.51 449.039L302.288 450.678L301.193 453.268L287.017 453.812L284.562 445.089H291.926L304.879 441.547L308.149 436.094L307.325 433.231L300.921 429.002L297.675 424.109L297.787 422.597Z" fill="#EBF2F2" stroke="white" stroke-width="0.5"/>
<path d="M262.71 587.825V589.872L250.141 593.126L248.646 579.086L255.738 576.088L259.072 578.159L262.71 587.825ZM255.186 485.37L255.051 495.325H255.107L247.279 498.459L244.96 509.773L246.463 524.221L251.373 530.217L249.734 532.4L248.782 533.216L247.559 533.08L239.243 533.895L240.882 542.619L242.386 544.529L249.478 545.897L253.707 551.621L255.89 549.031L258.073 550.67V554.892L262.023 559.529L259.704 564.758L256.706 565.046L247.847 565.997L231.08 559.865L230.128 573.225L232.039 577.319V585.091L228.361 589.456L230.408 594.773L231.632 596.548L229.857 599.275L228.217 600.498L219.974 609.837L219.43 615.29L216.376 614.411L213.53 609.109L213.642 601.714L210.795 599.779L210.907 595.461L206.014 594.781L199.873 589.32L205.222 582.612L209.996 582.268L211.931 580.222L210.907 575.328L212.842 571.347L209.316 558.833L209.884 553.828L207.157 552.349L203.863 543.538L203.064 517.488L198.514 506.91L199.194 495.085L201.664 490.096L209.268 488.113L219.766 490.432L225.899 488.936L227.946 491.255L232.719 494.797L240.491 493.158L244.992 494.245L246.359 487.569L251.948 485.386L253.427 484.427L255.186 485.37Z" fill="#EBF2F2" stroke="white" stroke-width="0.5"/>
<path d="M257.577 222.541L257.913 234.966L264.733 237.42L266.228 239.051L265.141 240.283L263.094 241.37L261.599 245.872L256.282 246.959L253.148 251.325L246.327 254.187L245.784 255.682L250.285 257.185L252.052 263.182L250.693 268.635L246.463 269.043L243.873 272.857L234.198 277.494L224.651 277.094L225.067 276.543L216.064 272.449L211.299 272.313L207.621 268.227L200.121 266.18L198.618 261.815L193.581 258.593L199.441 252.412L204.479 242.873L214.705 234.422L215.521 223.924L216.184 222.141L218.863 222.693L238.628 227.058L255.394 223.244L257.577 222.541Z" fill="#EBF2F2" stroke="white" stroke-width="0.5"/>
<path d="M282.859 359.025L291.926 360.712L297.651 368.891L300.921 368.755L303.783 360.304L307.741 357.577L314.418 361.935L316.057 366.165L314.961 371.618L315.433 371.602L319.735 383.611L321.094 387.705H324.916L332.408 383.339L334.998 385.93L333.231 405.831L334.318 408.005L332.288 408.245L329.889 414.01L326.755 413.058L322.597 405.831L314.689 404.471L305.423 413.874L296.835 418.24L297.787 422.597L297.651 424.372H291.654L274.208 418.24L269.163 414.418L264.389 416.465L258.593 413.33L259.616 412.651L264.389 406.646L263.982 400.649L267.252 394.381L265.477 375.975H266.3H268.619L270.93 372.977L270.522 366.844L272.841 361.119L275.567 360.848L276.663 363.574L278.566 363.438L281.428 360.168L282.859 359.025Z" fill="#EBF2F2" stroke="white" stroke-width="0.5"/>
<path d="M361.511 290.167L360.56 302.576L352.109 304.215L346.927 311.027L342.842 314.298L338.484 305.71L331.12 305.167L322.261 309.188L320.63 306.462L321.717 301.145L329.489 298.826L339.028 299.642L341.618 295.828L340.739 292.766L354.427 277.558L360.568 274.776L364.654 275.863L368.883 281.724L368.204 283.091H366.556L365.061 288.136L361.511 290.167ZM326.075 247.423L329.481 253.3L334.39 255.075L333.167 259.16L342.434 260.799L351.293 257.281V257.321L358.793 261.959L351.261 266.013L348.702 272.793L345.16 277.158L339.707 278.382L334.39 287.648L333.031 288.056L331.672 288.872L320.902 291.462L313.402 289.823L310.812 280.149L304.135 281.372L303.184 286.281L301.545 286.689L300.049 283.827L291.814 281.236L296.1 277.966L296.643 274.56L295.06 271.521L297.187 256.018L308.501 254.659L316.137 250.709L319.814 249.07L326.075 247.423Z" fill="#EBF2F2" stroke="white" stroke-width="0.5"/>
<path d="M384.962 346.48L394.237 347.959L395.492 345.912L396.02 346.04L400.674 350.693L406.694 351.245L408.469 350.693L410.524 342.21L413.946 343.713L414.218 346.312L420.103 346.04L420.51 352.748L425.164 362.87L419.735 373.329L419.279 373.409L417.912 377.654L413.674 378.614L411.068 381.9L403.952 382.036L397.523 387.641L392.87 385.866L385.202 391.886L389.04 395.988L382.196 400.098L382.604 403.792L389.048 411.148L383.379 416.473L382.012 424.004L379.509 424.644L375.008 413.874L371.33 412.915L368.196 417.688L369.403 427.61L363.47 428.274L359.057 435.958H355.243L353.332 433.775L357.697 423.964L358.649 401.057L356.33 398.059L351.837 398.611L348.071 406.358L334.318 408.005L333.231 405.831L334.998 385.93L332.408 383.339L324.916 387.705H321.094L319.735 383.611L315.433 371.602L323.141 372.161L325.459 369.843L334.726 364.118L338.548 359.488L341.882 357.306L349.246 363.03L350.469 365.213L356.882 367.116L355.922 357.441L359.88 353.484L365.197 352.124L371.194 346.943L385.234 347.351L384.962 346.48Z" fill="#EBF2F2" stroke="white" stroke-width="0.5"/>
<path d="M201.648 490.08L205.638 474.368L201.792 463.702L204.527 461.4L204.183 457.562L211.179 453.132L214.249 448.007L211.179 441.355L217.328 429.377L230.176 429.002L234.406 433.095L241.218 434.591L243.945 431.728L243.129 427.778L249.262 425.324L250.757 429.002L248.582 433.503L255.938 438.956H256.33L253.827 447.607L262.279 452.653V460.696L260.096 470.235L253.827 469.011L250.285 472.282L253.148 484.275L253.396 484.411L251.916 485.37L246.327 487.553L244.968 494.229L240.467 493.142L232.695 494.773L227.93 491.231L225.883 488.912L219.75 490.415L209.252 488.097L201.648 490.08Z" fill="#EBF2F2" stroke="white" stroke-width="0.5"/>
<path d="M334.175 287.712L333.023 288.056L331.664 288.872L320.894 291.462L313.394 289.831L310.804 280.149L304.127 281.38L303.176 286.289L301.537 286.697L300.034 283.834L293.629 281.244H291.798L291.31 284.786L289.679 288.192L282.044 289.559L277.678 292.422L276.047 297.187L277.814 301.145L277.726 301.297L289.679 311.435L290.495 315.521L303.032 321.11L304.535 330.656L307.941 335.294L314.625 335.702L326.483 341.97L329.753 341.155L330.297 338.292L331.936 330.584L330.704 328.138L321.438 321.454L322.117 315.457L324.98 311.779L324.3 309.052L320.894 308.781L321.709 301.145L329.481 298.826L339.02 299.642L341.61 295.828L341.746 293.781L334.934 288.328L334.175 287.712Z" fill="#EBF2F2" stroke="white" stroke-width="0.5"/>
<path d="M114.305 62.7736L116.967 55.2178L116.088 48.0458L121.509 41.2336L121.333 35.4688L135.837 34.5893L144.4 29.1763L156.114 34.4134L163.454 25.6822L173.408 24.9946L175.543 32.2626L168.603 37.7395L167.731 40.8818L178.221 47.5261L173.672 52.5953L168.427 53.9865L164.933 55.5616L153.051 62.2059L147.287 75.4865L136.972 82.8264L145.36 92.0853L143.265 95.4114H140.29H138.899L137.5 92.613L131.559 93.3086L122.013 88.0715L122.029 87.7197L119.758 85.6249L119.934 69.7217L114.689 65.3482L114.305 62.7736Z" fill="#EBF2F2" stroke="white" stroke-width="0.5"/>
<path d="M190.535 105.718L194.125 115.248L190.974 123.46V125.203L185.209 136.045L181.883 132.375L176.294 137.268L174.375 139.363L172.273 136.74L161.615 137.268L148.51 121.885L139.243 119.79L136.101 116.991L133.654 104.758L138.723 101.264L139.771 95.4115H140.29H143.265L145.36 92.0853L136.972 82.8265L147.287 75.4865L153.051 62.2059L164.933 55.5616L167.18 54.5542L172.273 62.9015L181.883 63.7811L193.773 75.4865L199.186 84.0498L195.868 94.1881H191.846L187.304 99.777L189.927 105.718H190.535Z" fill="#DAE7E6" stroke="white" stroke-width="0.5"/>
<path d="M360.56 274.768L354.419 277.55L340.731 292.758L334.934 288.328L334.182 287.712L334.39 287.648L339.707 278.382L345.16 277.158L348.702 272.793L351.261 266.012L358.793 261.959L364.518 261.279L373.784 254.331L376.375 254.739L373.92 259.512L369.699 261.287L366.972 267.284L360.432 271.785L360.56 274.768ZM351.429 238.372L368.196 234.422L373.241 230.344L374.296 232.951L354.291 243.969L351.293 248.878L351.429 254.195L351.293 257.289L342.434 260.807L333.167 259.176L334.39 255.091L329.481 253.316L326.075 247.439L330.441 245.272L331.256 242.138L327.034 235.054L327.442 232.327H332.895L333.031 229.465L337.117 226.331L339.659 225.515L343.521 228.313L351.429 238.372Z" fill="#EBF2F2" stroke="white" stroke-width="0.5"/>
<path d="M86.1366 40.8578L89.1749 33.7177L99.833 29.8719L98.4418 42.6328L100.361 50.1486L108.924 59.4074L114.169 61.8541L114.689 65.3481L119.934 69.7217L119.758 85.6248L122.029 87.7197L121.853 90.694L109.971 100.824L102.28 99.6011L100.361 103.799L97.9141 104.494L93.1967 100.824L88.8231 101L85.1532 103.447L82.7065 112.882L79.9161 116.208L75.3666 117.431L71.6007 112.634L73.4317 107.517L68.6663 105.598L70.1615 102.695L63.7251 102.376L65.62 97.2424L61.2705 96.4748L60.6788 93.1646L55.7535 89.4467L56.2572 78.7967L53.8426 75.8383L61.5663 66.7474L62.2619 53.2908L66.1078 49.2691L71.1769 48.5735L70.6492 55.0419L79.0366 58.7118L80.6117 55.5616L83.9298 56.0893L86.7283 53.4668L84.9853 49.445L86.9042 43.1525L86.1366 40.8578Z" fill="#EBF2F2" stroke="white" stroke-width="0.5"/>
<path d="M132.759 235.973L128.665 234.286L131.423 227.578L128.137 224.819L130.24 217.056L125.507 212.458L123.14 213.77L115.512 209.3L109.516 192.525L124.235 181.108L133.518 182.867L143.633 163.542L149.229 166.916L152.452 165.389L156.058 159.176L157.209 150.437L158.168 149.102L158.744 151.812L169.554 155.57L167.635 160.479L175.919 160.551L176.638 160.231L179.061 163.949L175.655 168.307L176.47 170.626L186.697 183.299L180.42 186.713L179.469 194.476L172.656 199.386L173.608 202.384H183.834L182.059 211.379L177.83 212.61L171.833 211.515L168.427 221.605L153.979 221.877L143.209 227.058L138.028 235.102L132.759 235.973Z" fill="#EBF2F2" stroke="white" stroke-width="0.5"/>
<path d="M192.725 105.718L208.628 105.894L218.591 108.868L227.498 104.151L233.614 106.941L247.071 107.645L251.788 101.872L261.751 95.0596L262.798 92.2612L256.706 87.176L259.392 77.6853L262.414 76.9817L266.5 78.3409L268.819 82.7065L276.591 83.522L278.502 87.0641L274.136 89.9265L271.274 88.0235L270.458 91.9733L262.822 98.2419L263.366 100.017L268.955 103.559L273.728 96.7467L277.814 97.2904L282.179 99.3372L289.951 109.012L287.632 111.059L287.225 115.552L282.044 119.646V125.914L275.095 128.097L274.136 133.142L268.955 133.278L269.914 128.369L264.325 124.411L251.101 130.28L249.326 137.228L246.327 139.003V143.904L252.188 142.817L255.466 144.456L260.096 160.263L258.185 162.038L254.371 164.085L252.876 168.171L245.92 165.716L242.194 168.875L240.81 167.491L215.321 148.542L190.974 125.067V123.46L194.124 115.248L190.534 105.718H192.725Z" fill="#EBF2F2" stroke="white" stroke-width="0.5"/>
<path d="M238.284 563.815L247.831 565.997L256.69 565.046L258.505 565.126L255.738 576.096L248.646 579.094L250.149 593.134L262.718 589.88L257.369 593.63L259.896 602.609L252.532 606.151L228.202 602.081V600.498L229.841 599.275L231.616 596.548L230.392 594.773L228.345 589.456L232.023 585.099V577.327L230.112 573.241L229.977 560.976L232.975 559.753L238.284 563.815ZM290.743 532.944L292.198 539.556L281.324 546.048L279.725 544.937L270.866 548.751L267.732 549.295L260.232 541.659L260.639 538.525L279.045 534.303L290.743 532.944ZM255.602 532.944L254.787 536.214L253.012 537.581L249.062 538.261L247.423 534.583L248.79 533.224L249.742 532.408L252.468 530.913L255.602 532.944ZM258.593 413.33L264.397 416.465L269.171 414.418L274.216 418.232L291.662 424.364H297.659L297.683 424.108L300.937 429.002L307.341 433.231L308.157 436.094L304.887 441.547L291.934 445.089H284.57L287.025 453.812L301.201 453.268L302.288 450.677L306.518 449.038L311.427 453.268L320.318 455.523L320.766 457.985L326.291 461.751L316.536 471.33L313.402 476.647L313.674 480.597L315.585 489.048L312.179 490.271L305.502 495.181L304.687 501.177L308.501 501.721L309.452 506.63L310.124 511.596L297.315 514.346L291.598 503.776L289.959 501.593L286.417 500.098L282.467 501.737L281.652 504.464L285.33 515.234L284.106 517.416L275.791 517.824L267.34 523.821L264.341 523.957L256.842 519.183L256.298 515.234L258.345 514.554L263.254 514.69L264.07 512.779L262.574 509.509L255.49 507.326L259.032 504.056L260.943 498.331L259.304 494.109L256.17 495.333H255.083L255.354 492.334L255.219 485.386L253.172 484.299L250.309 472.306L253.851 469.035L260.12 470.259L262.303 460.72V452.676L253.851 447.631L256.354 438.972H258.281L264.821 436.653L265.637 433.791L264.413 428.202L257.465 420.159L258.009 413.754L258.593 413.33Z" fill="#EBF2F2" stroke="white" stroke-width="0.5"/>
<path d="M109.516 192.525L104.99 190.359L101.44 182.867L92.3651 174.847L92.4931 171.953L87.1041 165.109L91.8374 161.559L91.8054 154.499L98.7776 144.76L100.081 139.467L106.981 141.082L116.879 134.102L137.044 140.546L150.996 135.869L159.048 146.599L159.2 147.902L158.2 149.054L157.209 150.437L156.058 159.176L152.452 165.388L149.229 166.916L143.633 163.541L133.518 182.867L124.235 181.108L109.516 192.525Z" fill="#EBF2F2" stroke="white" stroke-width="0.5"/>
<path d="M229.833 294.461L233.383 294.605L239.243 298.962L243.329 296.508L246.599 298.011L250.693 295.42L252.74 296.915L255.986 297.595L264.661 321.318L267.388 321.59L276.527 332.631L282.523 331.408L287.84 340.267L288.384 343.809L284.834 348.175L286.881 355.123L283.475 358.529L281.428 360.168L278.565 363.438L276.663 363.574L275.567 360.848L272.841 361.12L270.522 366.844L270.93 372.977L268.619 375.975H266.3H261.119L252.94 376.527L244.624 369.299L236.581 373.529L238.764 378.43L236.853 388.656L230.72 388.792L225.131 381.844L219.039 383.483L211.275 363.558L209.964 353.564L203.119 343.178L200.489 328.578L202.992 326.603L203.935 323.7L209.66 327.658L211.707 325.747L220.702 326.291L219.886 311.027L229.289 307.621L229.697 294.669L229.833 294.461Z" fill="#EBF2F2" stroke="white" stroke-width="0.5"/>
<path d="M330.297 338.292L335.958 335.63L338.82 339.724L339.228 357.306L338.548 359.488L334.726 364.118L325.459 369.843L323.141 372.161L314.961 371.618L316.057 366.165L314.418 361.935L307.741 357.578L303.783 360.304L300.921 368.755L297.651 368.891L291.926 360.712L282.859 359.025L283.475 358.529L286.881 355.123L284.834 348.175L288.384 343.809L287.84 340.267L282.523 331.408L276.527 332.631L267.388 321.59L264.661 321.318L255.986 297.595L256.01 297.603L258.737 295.964L260.096 300.194L270.05 309.596L272.913 308.781V302.912L276.998 302.504L277.726 301.297L289.679 311.435L290.495 315.521L303.032 321.11L304.535 330.657L307.941 335.294L314.625 335.702L326.483 341.97L329.753 341.155L330.297 338.292Z" fill="#EBF2F2" stroke="white" stroke-width="0.5"/>
<path d="M217.328 429.378L220.35 423.333L219.558 415.441L214.297 406.494L217.192 400.713L219.039 383.483L225.131 381.844L230.72 388.792L236.853 388.656L238.764 378.43L236.581 373.529L244.624 369.299L252.94 376.527L261.119 375.975H265.477L267.252 394.381L263.982 400.649L264.389 406.646L259.616 412.651L257.985 413.738L257.441 420.143L264.389 428.186L265.621 433.775L264.797 436.637L258.257 438.956H255.938L248.582 433.503L250.757 429.002L249.262 425.324L243.129 427.778L243.945 431.728L241.218 434.591L234.406 433.095L230.176 429.002L217.328 429.378Z" fill="#EBF2F2" stroke="white" stroke-width="0.5"/>
<path d="M193.581 258.593L198.618 261.815L200.121 266.18L207.621 268.227L211.299 272.313L216.064 272.449L225.067 276.543L224.244 277.63L223.156 282.267L219.75 282.132L220.022 284.034L229.017 289.759L230.792 293.029L229.697 294.669L229.289 307.621L219.886 311.027L220.702 326.291L211.707 325.747L209.66 327.658L203.935 323.7L202.992 326.603L200.489 328.578L198.386 312.139L194.412 307.981L194.668 301.481L191.67 296.444L181.851 288.944L180.356 284.442L179.812 278.582L184.442 271.905L183.354 263.726L193.581 258.593Z" fill="#EBF2F2" stroke="white" stroke-width="0.5"/>
<path d="M128.785 7.72426L129.145 9.45129L141.866 14.4485L148.822 9.89904L158.44 11.0904L169.93 19.3258L173.408 24.9946L163.454 25.6823L156.114 34.4134L144.4 29.1763L135.837 34.5893L121.333 35.4688L121.509 41.2336L116.088 48.0458L116.967 55.2178L114.305 62.7736L114.169 61.8541L108.924 59.4075L100.361 50.1486L98.4417 42.6328L99.833 29.8719L89.1749 33.7178L86.1366 40.8578L86.0327 40.53L77.9891 34.9411L80.5077 28.0489L85.1611 26.4498L89.9745 15.5439L96.243 9.81909L103.607 10.8185L107.061 15.0002L115.424 8.09205L122.237 6.54092L125.147 1.27185L127.058 1L130.688 3.54258L128.785 7.72426Z" fill="#EBF2F2" stroke="white" stroke-width="0.5"/>
<path d="M339.659 225.491L337.117 226.307L333.023 229.441L332.887 232.303L326.891 233.67L331.248 242.122L330.433 245.256L319.799 249.07L316.121 250.709L308.485 254.659L297.171 256.026L294.996 271.561L287.632 269.251L285.314 261.887H282.859L278.23 253.843L274.272 250.845L272.777 243.345L266.636 243.753L263.502 241.154L265.141 240.283L266.228 239.051L264.733 237.42L257.913 234.966L257.577 222.541L258.8 222.149L263.438 219.015L262.342 213.018L265.485 208.381L275.975 201.297L284.834 198.706L283.067 190.391L285.658 185.074L286.129 184.666L294.716 194.476L299.218 196.931L305.486 196.115L314.074 189.575L322.661 196.523L322.253 202.112L328.53 202.928L333.159 208.381L338.068 207.701L344.201 214.649L339.156 223.244L339.659 225.491Z" fill="#EBF2F2" stroke="white" stroke-width="0.5"/>
<path d="M273.832 166.852L275.095 165.716L280.676 158.768L294.852 160.263L293.357 151.676L294.717 149.493L304.263 148.542L312.579 140.77L317.896 130.28L322.805 129.592L326.891 134.774L324.844 151.132L325.387 187.664L330.297 192.03V203.063L328.53 202.928L322.253 202.112L322.661 196.523L314.074 189.575L305.487 196.115L299.218 196.931L294.717 194.476L286.129 184.666L285.45 183.163L270.866 171.985L273.832 166.852Z" fill="#EBF2F2" stroke="white" stroke-width="0.5"/>
<path d="M90.918 156.314L84.2097 149.134L81.4512 143.081L84.7374 141.898L83.9458 138.747L79.8681 137.3L81.3153 134.933L79.3484 131.12L80.3958 126.122L71.5847 122.436L75.3666 117.431L79.9161 116.208L82.7065 112.882L85.1532 103.447L88.8231 101L93.1967 100.824L97.9141 104.494L100.361 103.799L102.28 99.6011L109.971 100.824L121.853 90.6941L122.013 88.0715L131.559 93.3086L137.5 92.613L138.899 95.4114H139.771L138.723 101.264L133.654 104.758L136.101 116.991L139.243 119.79L148.51 121.885L161.615 137.268L172.273 136.74L174.375 139.363L174.519 139.203L175.839 140.922L175.223 141.922L170.626 142.153L167.787 145.376L169.474 149.901L159.152 147.494L159.048 146.599L150.997 135.869L137.044 140.546L116.879 134.102L106.981 141.082L100.081 139.467L98.7776 144.76L91.8055 154.499L90.918 156.314Z" fill="#EBF2F2" stroke="white" stroke-width="0.5"/>
<path d="M259.672 160.655L260.096 160.263L255.466 144.456L252.188 142.817L246.327 143.904V139.003L249.326 137.228L251.101 130.28L264.325 124.411L269.914 128.369L268.955 133.278L274.136 133.142L275.095 128.097L282.044 125.914V119.646L287.225 115.552L287.632 111.059L289.951 109.012L297.859 109.284L303.584 118.966L303.176 124.555L313.394 126.322L317.896 130.28L312.579 140.77L304.263 148.542L294.716 149.493L293.357 151.676L294.852 160.263L280.676 158.768L275.095 165.716L273.728 166.948L267.324 161.359L259.672 160.655Z" fill="#EBF2F2" stroke="white" stroke-width="0.5"/>
<path d="M177.382 212.41L177.83 212.61L182.059 211.379L183.834 202.384H173.608L172.656 199.386L179.469 194.476L180.42 186.713L186.697 183.298L176.47 170.626L175.655 168.307L179.061 163.949L176.638 160.231L177.294 159.943L186.577 157.489L192.557 159.408L193.165 156.337L190.255 153.731L193.325 150.893L193.165 147.215L189.407 142.233L183.275 147.83L177.07 144.296L175.655 141.234L175.839 140.922L174.519 139.203L176.294 137.268L181.883 132.375L185.209 136.045L190.974 125.203V125.067L215.321 148.542L240.81 167.491L242.857 169.538L243.809 183.298L239.715 186.984L241.082 196.523L237.404 198.026L230.856 195.028L218.183 195.164L214.913 192.573L210.955 194.476L207.957 198.978L211.091 213.969L209.62 218.191L198.146 216.152L194.732 219.422L187.24 214.241L178.789 216.152L177.382 212.41Z" fill="#EBF2F2" stroke="white" stroke-width="0.5"/>
<path d="M379.893 230.208L381.804 235.198L379.893 237.3L381.716 245.544L387.073 247.023L393.973 245.64L393.805 234.574L402.528 231.935L404.527 232.303L405.982 235.845L408.437 254.115L402.712 256.929L405.823 279.749L395.053 280.564L402.161 291.83L405.071 287.832L411.843 288.472L413.386 296.779L409.796 300.049L409.892 313.298L404.591 315.049L405.247 316.584L406.886 318.591L414.522 316.408L416.625 323.261L424.884 321.318L428.066 324.7L430.705 333.679L433.975 335.222L443.697 333.407L444.697 330.592L448.487 331.48L450.238 336.757L448.607 338.492L452.061 344.241L456.97 339.947L461.152 342.618L461.656 344.081L459.121 344.217L456.554 347.663L461.775 358.449L461.304 377.199L458.225 379.997L463.335 394.381L461.695 396.7L451.333 398.235L442.258 390.927L430.081 389.696L428.85 386.138L433.367 382.172L433.639 375.599L427.067 376.287L420.774 373.137L419.719 373.329L425.148 362.871L420.494 352.748L420.087 346.04L414.202 346.312L413.93 343.713L410.508 342.21L408.453 350.693L406.67 351.245L400.649 350.701L395.996 346.048L394.901 345.776L393.39 335.774L394.757 333.047L392.846 328.546L392.03 325.547L393.805 322.821L394.213 319.958L387.673 316.009L378.95 320.782L373.632 318.599L368.995 313.418L369.539 308.509L377.718 310.148L378.67 308.509L377.031 305.375L379.757 296.515L377.846 291.606L368.851 281.724L364.63 275.863L360.544 274.776L360.408 271.777L366.948 267.276L369.675 261.279L373.904 259.504L376.359 254.731L373.768 254.323L364.502 261.271L358.777 261.951L351.277 257.313L351.413 254.179L351.277 248.862L354.275 243.953L374.28 232.943L373.984 231.464L379.893 230.208ZM268.195 67.1152L284.098 73.1118L284.826 76.6539L294.493 75.4705L297.483 77.9012L301.369 75.9263L306.006 78.1091L308.277 81.835L306.19 95.9231L316.736 110.643L323.277 107.916L330.824 115.28L337.389 115.088L338.78 114.489L337.796 110.051L340.555 111.97L339.699 107.533L345.048 107.469L344.505 105.094L349.734 106.141L354.403 127.809L356.466 126.226L363.734 127.681L354.715 140.474L357.529 145.655L360.144 143.952L363.182 145.32L361.303 154.602L356.69 157.481L355.363 161.75L358.825 168.771L355.475 177.55L359.081 177.39L355.994 180.26L356.922 183.474L353.284 191.454L343.953 194.532L348.774 204.311L353.1 203.535L352.924 211.403L349.742 214.809L353.572 213.098L352.396 219.918L354.627 220.43L360.432 214.505L361.247 223.692L364.654 219.814L370.874 217.08L373.169 230.352L370.442 233.471L351.357 238.38L346.176 230.608L339.587 225.499L339.092 223.252L344.137 214.665L338.004 207.717L333.095 208.397L331.048 205.534L330.233 192.038L325.323 187.672L324.78 151.14L326.827 134.782L322.741 129.6L303.112 124.555L303.52 118.966L297.795 109.292L289.887 109.02L281.028 98.5217L273.664 96.7467L268.891 103.559L264.117 101.512L262.758 98.2418L270.394 91.9733L271.21 88.0235L274.072 89.9345L278.437 87.0721L276.527 83.53L268.755 82.7145L265.077 77.5334L259.424 77.6933L260.863 75.1267L259.776 71.5847L266.044 66.7714L268.195 67.1152Z" fill="#EBF2F2" stroke="white" stroke-width="0.5"/>
<path d="M177.582 35.085L194.932 36.6521L199.25 38.619L201.36 43.4404L200.545 48.0458L196.579 53.075L198.578 56.8009L203.591 55.8255L210.124 48.8054L214.209 50.2606L215.576 57.3446L219.119 59.7113L222.597 59.1676L231.16 52.1235L234.734 53.8985L238.524 52.3954L240.706 55.4816V63.5731L238.34 68.2106L233.527 70.2974L234.342 75.4785L240.523 74.7509L243.161 69.8417L249.246 68.7543L249.126 83.8658L253.883 87.3839L256.706 87.176L262.798 92.2612L261.751 95.0596L251.788 101.872L247.071 107.645L233.614 106.941L227.498 104.151L218.591 108.868L208.628 105.894L192.725 105.718H189.927L187.304 99.777L191.846 94.1881H195.867L199.186 84.0497L193.773 75.4865L181.883 63.781L172.273 62.9015L167.179 54.5542L168.427 53.9865L173.672 52.5953L178.221 47.5261L167.731 40.8818L168.603 37.7395L175.543 32.2626L177.582 35.085Z" fill="#EBF2F2" stroke="white" stroke-width="0.5"/>
<path d="M295.044 271.529L296.627 274.56L296.084 277.974L291.854 280.836L291.31 284.786L289.679 288.192L282.044 289.559L277.678 292.422L276.047 297.187L277.814 301.145L276.998 302.504L272.913 302.912V308.781L270.05 309.596L260.096 300.193L258.736 295.964L256.01 297.603L252.74 296.915L250.693 295.42L246.599 298.011L243.329 296.507L239.243 298.962L233.383 294.605L229.833 294.461L230.792 293.029L229.017 289.759L220.022 284.034L219.75 282.131L223.156 282.267L224.244 277.63L224.651 277.094L234.198 277.494L243.873 272.857L246.463 269.043L250.693 268.635L252.052 263.182L250.285 257.185L245.784 255.682L246.327 254.187L253.148 251.325L256.282 246.959L261.599 245.872L263.094 241.37L263.502 241.154L266.636 243.753L272.777 243.345L274.272 250.845L278.23 253.843L282.859 261.887H285.314L287.632 269.251L294.996 271.561L295.044 271.529Z" fill="#EBF2F2" stroke="white" stroke-width="0.5"/>
<path d="M451.341 398.235L459.113 405.151L465.789 405.695L467.7 412.235L475.064 421.782L477.031 422.125L479.15 419.463L485.011 423.549L489.512 422.733L489.104 426.683L476.831 434.183L462.519 433.503L457.882 431.456L453.388 434.455L451.613 439.636L448.887 440.451L444.121 437.045L439.284 428.69L436.757 418.783L430.761 414.146L431.712 418.783L430.217 422.461L420.59 421.318L421.766 432.959L417.264 436.23H411.404L406.214 432.967L404.863 424.508L396.74 422.653L393.685 413.33L389.048 411.148L382.604 403.792L382.196 400.098L389.04 395.988L385.202 391.886L392.87 385.866L397.523 387.641L403.952 382.036L411.068 381.9L413.674 378.614L417.912 377.654L419.279 373.409L420.79 373.137L427.083 376.287L433.647 375.599L433.375 382.172L428.858 386.137L430.089 389.696L442.274 390.927L451.341 398.235Z" fill="#EBF2F2" stroke="white" stroke-width="0.5"/>
<path d="M264.054 512.771L263.238 514.682L258.329 514.546L256.282 515.226L256.826 519.175L264.325 523.949L267.324 523.813L275.775 517.816L284.09 517.408L285.314 515.226L281.636 504.456L282.451 501.729L286.401 500.09L289.943 501.593L291.582 503.776L297.299 514.346L289.327 518.496L290.735 532.944L279.037 534.303L260.631 538.533L260.224 541.667L267.723 549.303L270.858 548.759L279.717 544.945L281.316 546.056L280.197 552.237L276.926 554.284L267.388 555.235L266.436 564.502L259.688 564.758L262.007 559.529L258.057 554.892V550.67L255.874 549.031L253.691 551.621L249.47 545.897L242.378 544.537L240.882 542.626L239.243 533.903L247.559 533.088L249.062 538.269L253.012 537.589L254.787 536.23L255.602 532.96L251.381 530.233L246.471 524.237L244.976 509.789L247.295 498.475L255.122 495.341H256.154L259.288 494.117L260.927 498.347L259.016 504.072L255.474 507.342L262.566 509.525L264.054 512.771ZM324.916 500.498L323.828 505.199L319.607 508.469L310.124 511.588L309.452 506.622L308.501 501.713L304.687 501.169L305.502 495.173L312.179 490.264L315.585 489.04L313.674 480.589L313.402 476.639L316.536 471.322L326.291 461.743L332.687 465.389L334.526 469.123L334.055 472.481L328.466 477.455L326.683 482.164L320.006 486.793L319.055 490L324.916 500.498Z" fill="#EBF2F2" stroke="white" stroke-width="0.5"/>
<path d="M286.081 184.546L285.658 185.074L283.067 190.391L284.834 198.706L275.975 201.296L265.485 208.381L262.342 213.018L263.438 219.015L258.8 222.149L255.394 223.244L238.628 227.058L218.863 222.693L209.62 218.191L211.091 213.969L207.957 198.978L210.955 194.476L214.913 192.573L218.183 195.164L230.856 195.028L237.404 198.026L241.082 196.523L239.715 186.984L243.809 183.298L242.857 169.538L242.194 168.875L245.92 165.716L252.876 168.171L254.371 164.085L258.185 162.038L259.672 160.655L267.324 161.359L273.728 166.948L273.832 166.852L270.866 171.985L285.45 183.163L286.081 184.546Z" fill="#EBF2F2" stroke="white" stroke-width="0.5"/>
<path d="M194.34 308.629L191.262 304.775L179.293 300.433L178.237 296.619L165.748 286.625L165.876 283.075L160.487 280.844L159.696 272.953L149.173 250.069L145.104 251.381L138.787 247.439L132.998 239.675L132.719 236.005L138.028 235.142L143.209 227.098L153.979 221.917L169.658 220.83L171.833 211.555L177.382 212.45L178.789 216.192L187.24 214.281L194.732 219.462L200.601 216.192L209.62 218.231L216.184 222.173L214.705 234.454L204.479 242.905L195.348 257.361L182.403 265.677L184.442 271.945L179.812 278.621L180.356 284.482L181.851 288.984L193.573 299.618L194.34 308.629Z" fill="#EBF2F2" stroke="white" stroke-width="0.5"/>
</svg>
