<svg width="59" height="52" viewBox="0 0 59 52" fill="none" xmlns="http://www.w3.org/2000/svg">
<path d="M34.1082 23.3783C33.5872 22.4843 32.8103 21.7634 31.8757 21.3068C30.9412 20.8502 29.8909 20.6784 28.8578 20.8131C27.8247 20.9479 26.8551 21.3832 26.0717 22.0638C25.2883 22.7445 24.7262 23.6401 24.4565 24.6373C24.1869 25.6345 24.2217 26.6885 24.5567 27.666C24.8917 28.6436 25.5117 29.5008 26.3384 30.1292C27.1652 30.7576 28.1614 31.1291 29.2012 31.1965C30.241 31.264 31.2776 31.0245 32.18 30.5083C33.39 29.816 34.2728 28.676 34.6344 27.3389C34.996 26.0018 34.8067 24.5772 34.1082 23.3783ZM28.392 46.7731C28.7873 46.4304 29.1837 46.0688 29.5811 45.6883C29.8631 45.9541 30.1448 46.2113 30.4263 46.4599C35.7488 51.1531 41.0867 53.1339 44.2958 51.2985C47.3726 49.5386 48.2895 44.3034 47.0032 37.7494C46.8758 37.1039 46.732 36.4619 46.5718 35.8234C46.9971 35.7012 47.4199 35.5712 47.8403 35.4335C54.6033 33.21 59.0023 29.6184 59 25.9475C58.9984 22.4274 54.8786 19.0253 48.5054 16.855C47.8767 16.6415 47.2427 16.444 46.6035 16.2624C46.7092 15.8356 46.8069 15.4069 46.8965 14.9765C48.3295 8.06153 47.3857 2.49197 44.1748 0.660153C41.0957 -1.09635 36.0628 0.740614 30.9821 5.12742C30.4794 5.56248 29.988 6.00986 29.5078 6.46955C28.9444 5.92763 28.3812 5.41448 27.8213 4.93619C22.8122 0.655711 17.8616 -1.07621 14.7959 0.677455C11.6291 2.48858 10.594 7.97976 11.9215 14.6634C12.0299 15.2051 12.1518 15.7437 12.2873 16.2794C11.5959 16.4756 10.9105 16.6909 10.2312 16.9251C3.98585 19.0859 -0.00126648 22.4689 0 25.9765C0.0021553 29.5989 4.28598 33.2303 10.7933 35.4304C11.3075 35.6042 11.8416 35.7687 12.3914 35.9246C12.2177 36.6165 12.0635 37.3129 11.9289 38.0138C10.6991 44.4534 11.6663 49.5655 14.7343 51.316C17.9034 53.1236 23.2186 51.2598 28.392 46.773V46.7731ZM42.9171 2.82404C44.8936 3.95176 45.6647 8.5034 44.4275 14.4739C44.3483 14.8554 44.2598 15.2435 44.162 15.6382C41.5593 15.0553 38.9205 14.644 36.2629 14.407C34.7332 12.2527 33.0643 10.1988 31.2668 8.25811C31.7131 7.83053 32.1703 7.41436 32.6383 7.00962L32.6381 7.00979C36.9914 3.25109 41.0617 1.76549 42.9171 2.82404ZM26.0193 14.1833C27.1598 12.6911 28.3281 11.3044 29.5032 10.0457C30.6711 11.3035 31.8355 12.6911 32.9729 14.1803C31.8142 14.1268 30.6547 14.1002 29.4942 14.1007C28.3355 14.1015 27.1772 14.129 26.0193 14.1833ZM14.3945 14.1815C13.826 11.6484 13.7329 9.03318 14.1198 6.46663C14.1751 5.76305 14.3754 5.07818 14.7084 4.45434C15.0414 3.83051 15.5 3.28095 16.0559 2.83964C17.9164 1.7756 21.891 3.16628 26.175 6.82704C26.7119 7.28728 27.2348 7.76261 27.7437 8.25302C25.9367 10.194 24.2613 12.2513 22.7285 14.4113C20.0369 14.6516 17.3643 15.0677 14.7281 15.657C14.6047 15.168 14.4935 14.6762 14.3945 14.1815ZM38.1106 34.9355C38.734 33.9552 39.3374 32.9629 39.9208 31.9585C40.4951 30.97 41.0478 29.9697 41.5789 28.9575C42.3145 30.6906 42.9427 32.3942 43.4546 34.0389C41.6896 34.4266 39.906 34.7259 38.1106 34.9355ZM47.6862 19.2165C53.147 21.076 56.4787 23.8273 56.4796 25.9488C56.4807 28.2083 52.8858 31.1439 47.0466 33.0635C46.666 33.1882 46.2832 33.306 45.8983 33.4171C45.1087 30.8952 44.1516 28.4278 43.0332 26.0312C44.1648 23.6444 45.1326 21.1848 45.9299 18.6691C46.5198 18.8372 47.1052 19.0197 47.6862 19.2165ZM43.486 18.0464C42.9409 19.7619 42.3088 21.4491 41.5921 23.1015C40.5256 21.0541 39.3639 19.0595 38.107 17.1179C39.9891 17.3524 41.7923 17.6646 43.486 18.0464ZM20.8871 17.1221C20.2614 18.0904 19.6589 19.0728 19.0795 20.0694C18.4887 21.086 17.9228 22.1161 17.3816 23.1597C16.6402 21.4946 15.9855 19.7929 15.4201 18.0613C17.1373 17.6751 18.9722 17.3596 20.8871 17.1221ZM11.6078 33.0671C9.10881 32.2896 6.77559 31.063 4.72477 29.4486L4.72459 29.4484C4.13712 29.0495 3.63848 28.5354 3.25945 27.938C2.88043 27.3406 2.62908 26.6726 2.52094 25.9752C2.5197 23.8469 5.72168 21.1304 11.0625 19.2826C11.694 19.065 12.3311 18.8648 12.9741 18.682C13.7972 21.2098 14.7924 23.6794 15.9527 26.0738C14.827 28.4902 13.8628 30.9772 13.0661 33.5188C12.5765 33.38 12.0904 33.2294 11.6078 33.0671ZM15.5143 34.1258C16.0335 32.4622 16.6722 30.7338 17.4185 28.9757C17.945 29.9668 18.501 30.9651 19.0865 31.9706C19.6879 33.0024 20.3044 34.0078 20.9358 34.987C19.1149 34.792 17.3054 34.5045 15.5142 34.1258H15.5143ZM29.5051 35.4301C27.7136 35.4323 25.9235 35.3769 24.1348 35.2639C23.1512 33.824 22.1908 32.3038 21.2691 30.7221C20.3512 29.147 19.5077 27.5863 18.7442 26.0554C19.5235 24.4445 20.3633 22.8645 21.2635 21.3156C22.1584 19.7755 23.1112 18.2706 24.1221 16.8011C25.9102 16.6668 27.7015 16.5991 29.4961 16.5981L29.4956 16.5985C31.2889 16.5972 33.0804 16.6634 34.87 16.797C35.8623 18.2366 36.8219 19.7457 37.7312 21.306C38.6448 22.8735 39.4847 24.4537 40.246 26.0251C39.4655 27.6163 38.629 29.1787 37.7366 30.7125C36.8437 32.2516 35.901 33.7607 34.9085 35.2397C33.1101 35.3667 31.309 35.4302 29.5051 35.4303V35.4301ZM44.5289 38.2263C45.6314 43.8416 44.8898 48.0755 43.0356 49.1362C41.0602 50.2661 36.6975 48.6467 32.1019 44.5949L32.1017 44.5947C31.8482 44.3709 31.5936 44.1386 31.3379 43.898C33.1392 41.9237 34.8028 39.8302 36.3171 37.632C38.9456 37.4101 41.5562 37.0143 44.1314 36.447C44.2815 37.0516 44.4141 37.6447 44.5289 38.2263ZM33.0691 37.8467C31.9764 39.3294 30.8068 40.755 29.565 42.1177C28.3028 40.761 27.113 39.34 26.0005 37.8603C27.1685 37.9056 28.3371 37.9278 29.5063 37.9271C30.6942 37.9266 31.8818 37.8998 33.0691 37.8467ZM15.9923 49.1517C14.1304 48.0895 13.354 43.9849 14.4057 38.4776C14.526 37.8465 14.6691 37.1989 14.8351 36.5348C17.4434 37.0885 20.0865 37.4668 22.7463 37.6672C24.287 39.8618 25.9782 41.9487 27.8081 43.9131C27.4477 44.2569 27.0889 44.5839 26.7318 44.8941H26.732C24.804 46.6508 22.5661 48.0408 20.1301 48.9947C19.4879 49.2998 18.7893 49.4711 18.0776 49.4981C17.3659 49.5251 16.6562 49.4072 15.9923 49.1517Z" fill="#F25430"/>
</svg>
