<svg width="32" height="33" viewBox="0 0 32 33" fill="none" xmlns="http://www.w3.org/2000/svg">
<path d="M32 0.154129C31.7689 0.154129 31.5378 0.235761 31.3778 0.399027L29.9733 1.68882C29.6178 2.01535 29.0667 2.01535 28.7111 1.68882L27.3067 0.399027C26.9511 0.072496 26.4 0.072496 26.0444 0.399027L24.64 1.68882C24.2844 2.01535 23.7333 2.01535 23.3778 1.68882L21.9733 0.399027C21.6178 0.072496 21.0667 0.072496 20.7111 0.399027L19.3067 1.68882C18.9511 2.01535 18.4 2.01535 18.0444 1.68882L16.64 0.399027C16.2844 0.072496 15.7333 0.072496 15.3778 0.399027L13.9733 1.68882C13.6178 2.01535 13.0667 2.01535 12.7111 1.68882L11.2889 0.3827C10.9333 0.0561695 10.3822 0.0561695 10.0267 0.3827L8.62222 1.68882C8.26667 2.01535 7.71556 2.01535 7.36 1.68882L5.95556 0.3827C5.6 0.0561695 5.04889 0.0561695 4.69333 0.3827L3.28889 1.68882C2.93333 2.01535 2.38222 2.01535 2.02667 1.68882L0.622222 0.3827C0.462222 0.235761 0.231111 0.154129 0 0.154129V32.1378C0.231111 32.1378 0.462222 32.0562 0.622222 31.8929L2.02667 30.6031C2.38222 30.2766 2.93333 30.2766 3.28889 30.6031L4.69333 31.8929C5.04889 32.2194 5.6 32.2194 5.95556 31.8929L7.36 30.6031C7.71556 30.2766 8.26667 30.2766 8.62222 30.6031L10.0267 31.8929C10.3822 32.2194 10.9333 32.2194 11.2889 31.8929L12.6933 30.6031C13.0489 30.2766 13.6 30.2766 13.9556 30.6031L15.36 31.8929C15.7156 32.2194 16.2667 32.2194 16.6222 31.8929L18.0267 30.6031C18.3822 30.2766 18.9333 30.2766 19.2889 30.6031L20.6933 31.8929C21.0489 32.2194 21.6 32.2194 21.9556 31.8929L23.36 30.6031C23.7156 30.2766 24.2667 30.2766 24.6222 30.6031L26.0267 31.8929C26.3822 32.2194 26.9333 32.2194 27.2889 31.8929L28.6933 30.6031C29.0489 30.2766 29.6 30.2766 29.9556 30.6031L31.36 31.8929C31.5378 32.0562 31.7689 32.1378 31.9822 32.1378V0.154129H32ZM24.8889 24.3011H7.11111C6.13333 24.3011 5.33333 23.5664 5.33333 22.6684C5.33333 21.7705 6.13333 21.0358 7.11111 21.0358H24.8889C25.8667 21.0358 26.6667 21.7705 26.6667 22.6684C26.6667 23.5664 25.8667 24.3011 24.8889 24.3011ZM24.8889 17.7705H7.11111C6.13333 17.7705 5.33333 17.0358 5.33333 16.1378C5.33333 15.2398 6.13333 14.5051 7.11111 14.5051H24.8889C25.8667 14.5051 26.6667 15.2398 26.6667 16.1378C26.6667 17.0358 25.8667 17.7705 24.8889 17.7705ZM24.8889 11.2398H7.11111C6.13333 11.2398 5.33333 10.5051 5.33333 9.60719C5.33333 8.70923 6.13333 7.97454 7.11111 7.97454H24.8889C25.8667 7.97454 26.6667 8.70923 26.6667 9.60719C26.6667 10.5051 25.8667 11.2398 24.8889 11.2398Z" fill="#252323"/>
</svg>
