<svg width="20" height="14" viewBox="0 0 20 14" fill="none" xmlns="http://www.w3.org/2000/svg">
<g clip-path="url(#clip0_200_2127)">
<path d="M5.75438 11.7105C5.51164 11.7108 5.27726 11.6219 5.09587 11.4606L0.0776901 7.00007L5.37455 2.29164C5.57198 2.12275 5.82782 2.03809 6.08703 2.05585C6.34624 2.07361 6.58814 2.19237 6.76069 2.38661C6.93324 2.58085 7.02267 2.83504 7.00974 3.09452C6.99682 3.354 6.88257 3.59805 6.69157 3.77418L3.06281 7.00007L6.4129 9.97706C6.5634 10.1106 6.66973 10.2867 6.71776 10.4821C6.76578 10.6775 6.75324 10.8829 6.68178 11.071C6.61033 11.2591 6.48335 11.421 6.31771 11.5352C6.15207 11.6494 5.9556 11.7106 5.75438 11.7105V11.7105ZM14.6255 11.7085L19.9223 7.00007L14.9041 2.53956C14.7075 2.36492 14.4496 2.27553 14.1871 2.29106C13.9245 2.30659 13.6789 2.42576 13.5043 2.62236C13.3297 2.81896 13.2403 3.07688 13.2558 3.33938C13.2713 3.60188 13.3905 3.84746 13.5871 4.0221L16.9372 7.00007L13.3084 10.225C13.1117 10.3996 12.9924 10.6452 12.9768 10.9078C12.9611 11.1704 13.0505 11.4285 13.2251 11.6252C13.3998 11.8219 13.6454 11.9412 13.908 11.9569C14.1707 11.9725 14.4287 11.8831 14.6255 11.7085V11.7085ZM9.98612 13.1137L11.9696 1.2137C11.995 1.08364 11.994 0.949826 11.9668 0.82015C11.9395 0.690473 11.8866 0.567566 11.8111 0.458691C11.7356 0.349815 11.639 0.257179 11.527 0.186253C11.4151 0.115328 11.2901 0.0675511 11.1594 0.0457461C11.0287 0.0239411 10.8949 0.0285497 10.766 0.0592998C10.6371 0.0900499 10.5157 0.146318 10.4089 0.22478C10.3022 0.303242 10.2122 0.402306 10.1443 0.516122C10.0765 0.629938 10.0321 0.756197 10.0139 0.88744L8.03042 12.7874C8.00505 12.9175 8.00601 13.0513 8.03324 13.181C8.06047 13.3107 8.1134 13.4336 8.18893 13.5424C8.26446 13.6513 8.36104 13.744 8.47297 13.8149C8.5849 13.8858 8.70991 13.9336 8.84062 13.9554C8.97132 13.9772 9.10507 13.9726 9.23397 13.9418C9.36286 13.9111 9.48429 13.8548 9.59107 13.7764C9.69786 13.6979 9.78783 13.5988 9.85568 13.485C9.92353 13.3712 9.96789 13.2449 9.98612 13.1137V13.1137Z" fill="#008F8C"/>
</g>
<defs>
<clipPath id="clip0_200_2127">
<rect width="20" height="14" fill="white"/>
</clipPath>
</defs>
</svg>
