<svg width="23" height="23" viewBox="0 0 23 23" fill="none" xmlns="http://www.w3.org/2000/svg">
<g clip-path="url(#clip0_214_2186)">
<path d="M3.46376 1.22479C2.03631 1.22479 1 2.20947 1 3.56518C1 4.92043 2.01575 5.9042 3.41441 5.9042C4.14002 5.9042 4.76509 5.66888 5.22248 5.22384C5.66113 4.79661 5.90285 4.20762 5.90239 3.55467C5.87041 2.18297 4.86745 1.22479 3.46376 1.22479ZM4.58552 4.56906C4.30223 4.84458 3.89693 4.99034 3.41441 4.99034C2.53117 4.99034 1.91386 4.40456 1.91386 3.56518C1.91386 2.7121 2.53665 2.13865 3.46376 2.13865C4.36985 2.13865 4.96843 2.70296 4.98899 3.56564C4.98853 3.95951 4.84551 4.31546 4.58552 4.56906Z" fill="#008F8C" stroke="#008F8C"/>
<path d="M1.43819 22.7752H5.54507V7.67596H1.43819V22.7752ZM2.35205 8.58982H4.63121V21.8609H2.35205V8.58982Z" fill="#008F8C" stroke="#008F8C"/>
<path d="M16.3747 7.67596C14.4703 7.67596 13.3042 8.33349 12.6288 8.95171L12.5004 7.67596H7.85394V22.7747H12.4045V14.8392C12.4045 14.4975 12.5429 13.7878 12.6298 13.6005C13.1794 12.4166 13.921 12.4166 15.0442 12.4166C16.3377 12.4166 17.4307 13.6298 17.4307 15.0654V22.7756H22V14.2448C22 9.73123 19.0839 7.67596 16.3747 7.67596ZM21.0861 21.8613H18.3446V15.065C18.3446 13.1335 16.833 11.5023 15.0442 11.5023C13.8964 11.5023 12.5959 11.5023 11.8004 13.2158C11.6364 13.5699 11.4902 14.4184 11.4902 14.8392V21.8613H8.76779V8.58982H11.6739L11.8603 10.4376H12.6092L12.7431 10.2215C13.0478 9.73077 14.0115 8.58937 16.3747 8.58937C18.6439 8.58937 21.0861 10.3586 21.0861 14.2434V21.8613Z" fill="#008F8C" stroke="#008F8C"/>
</g>
<defs>
<clipPath id="clip0_214_2186">
<rect width="23" height="23" fill="white"/>
</clipPath>
</defs>
</svg>
