<svg width="20" height="20" viewBox="0 0 20 20" fill="none" xmlns="http://www.w3.org/2000/svg">
<path d="M13.0695 12.5542L13.0694 12.5541L13.0603 12.563L11.1184 14.4635C8.63374 13.1421 6.5813 11.1424 5.23823 8.71851L7.16972 6.82819C7.58949 6.41737 7.71202 5.83653 7.54606 5.31971L7.54611 5.31969L7.54374 5.31268C7.19098 4.26762 7 3.14719 7 1.97868C7 1.15416 6.31593 0.5 5.5 0.5H2C1.18407 0.5 0.5 1.15416 0.5 1.97868C0.5 11.4548 8.34407 19.1163 18 19.1163C18.8159 19.1163 19.5 18.4622 19.5 17.6376V14.222C19.5 13.3975 18.8159 12.7433 18 12.7433C16.8166 12.7433 15.6627 12.5572 14.5958 12.2136C14.4171 12.1471 14.2422 12.1366 14.12 12.1366C13.7309 12.1366 13.36 12.2842 13.0695 12.5542ZM3.57636 3.45737H4.0817C4.14929 4.09912 4.26474 4.72988 4.42843 5.34215L4.02113 5.74077C3.81117 5.00323 3.66125 4.24053 3.57636 3.45737ZM14.1629 15.648L14.5454 15.2769C15.188 15.4397 15.8409 15.5545 16.5 15.6213V16.0758C15.7006 15.9937 14.9208 15.8488 14.1629 15.648Z" stroke="#252323"/>
</svg>
