<svg width="20" height="20" viewBox="0 0 20 20" fill="none" xmlns="http://www.w3.org/2000/svg">
<path d="M19.1578 0.187887C18.4419 0.0657961 17.7171 0.00295143 16.9907 4.30177e-06C14.5123 -0.00200751 12.0857 0.70167 9.99994 2.02716C7.90886 0.719074 5.48258 0.032667 3.00921 0.0494471C2.28282 0.0523942 1.55794 0.115239 0.84209 0.23733C0.607607 0.277357 0.395263 0.398967 0.243298 0.580258C0.0913316 0.761549 0.0097305 0.990609 0.0131896 1.22619V13.0925C0.0110508 13.2378 0.0412785 13.3817 0.101722 13.5141C0.162166 13.6466 0.25134 13.7642 0.362899 13.8586C0.474458 13.953 0.605661 14.0219 0.747172 14.0604C0.888682 14.0989 1.03702 14.106 1.18164 14.0813C2.61276 13.836 4.079 13.8767 5.49398 14.201C6.90897 14.5254 8.24409 15.1269 9.42071 15.97L9.54055 16.0393H9.6504C9.76116 16.0849 9.87995 16.1085 9.99994 16.1085C10.1199 16.1085 10.2387 16.0849 10.3495 16.0393H10.4593L10.5792 15.97C11.7476 15.108 13.0789 14.4871 14.4941 14.144C15.9094 13.8008 17.3798 13.7426 18.8182 13.9725C18.9629 13.9973 19.1112 13.9901 19.2527 13.9516C19.3942 13.9131 19.5254 13.8442 19.637 13.7498C19.7485 13.6554 19.8377 13.5378 19.8982 13.4054C19.9586 13.273 19.9888 13.129 19.9867 12.9837V1.11741C19.9763 0.892104 19.8884 0.677085 19.7377 0.508017C19.5869 0.33895 19.3823 0.225994 19.1578 0.187887ZM9.00126 13.3298C7.1536 12.3673 5.09696 11.865 3.00921 11.8663C2.67965 11.8663 2.35009 11.8663 2.01054 11.8663V1.97772C2.34316 1.95874 2.6766 1.95874 3.00921 1.97772C5.13977 1.97539 7.22384 2.59446 9.00126 3.75766V13.3298ZM17.9893 11.9058C17.6498 11.9058 17.3202 11.9058 16.9907 11.9058C14.9029 11.9046 12.8463 12.4069 10.9986 13.3693V3.75766C12.776 2.59446 14.8601 1.97539 16.9907 1.97772C17.3233 1.95874 17.6567 1.95874 17.9893 1.97772V11.9058ZM19.1578 16.0096C18.4419 15.8875 17.7171 15.8247 16.9907 15.8217C14.5123 15.8197 12.0857 16.5234 9.99994 17.8489C7.91422 16.5234 5.48756 15.8197 3.00921 15.8217C2.28282 15.8247 1.55794 15.8875 0.84209 16.0096C0.71209 16.03 0.58745 16.0757 0.475339 16.144C0.363227 16.2123 0.265856 16.3018 0.188823 16.4075C0.111791 16.5132 0.0566174 16.6329 0.0264757 16.7598C-0.00366592 16.8867 -0.00818116 17.0182 0.0131896 17.1468C0.0639409 17.4036 0.215412 17.63 0.434421 17.7764C0.653431 17.9228 0.922123 17.9773 1.18164 17.928C2.61276 17.6826 4.079 17.7233 5.49398 18.0477C6.90897 18.3721 8.24409 18.9735 9.42071 19.8167C9.58984 19.9359 9.79231 20 9.99994 20C10.2076 20 10.41 19.9359 10.5792 19.8167C11.7558 18.9735 13.0909 18.3721 14.5059 18.0477C15.9209 17.7233 17.3871 17.6826 18.8182 17.928C19.0778 17.9773 19.3464 17.9228 19.5655 17.7764C19.7845 17.63 19.9359 17.4036 19.9867 17.1468C20.0081 17.0182 20.0035 16.8867 19.9734 16.7598C19.9433 16.6329 19.8881 16.5132 19.8111 16.4075C19.734 16.3018 19.6367 16.2123 19.5245 16.144C19.4124 16.0757 19.2878 16.03 19.1578 16.0096Z" fill="#008F8C"/>
</svg>
