<svg width="23" height="21" viewBox="0 0 23 21" fill="none" xmlns="http://www.w3.org/2000/svg">
<path d="M22.2318 0.495041C21.9342 0.247492 21.5749 0.0852521 21.1923 0.0255868C20.8098 -0.0340784 20.4182 0.0110635 20.0592 0.156209L1.32322 7.71787C0.922543 7.88266 0.581472 8.16537 0.345281 8.52847C0.109089 8.89156 -0.0110534 9.31788 0.000799757 9.75083C0.0126529 10.1838 0.155941 10.6029 0.411646 10.9525C0.66735 11.3022 1.02338 11.5658 1.43248 11.7084L5.22235 13.026L7.33474 20.009C7.36345 20.1023 7.40511 20.1911 7.45851 20.2728C7.46661 20.2853 7.47804 20.2947 7.48665 20.3068C7.54834 20.3929 7.62289 20.4689 7.7077 20.5323C7.73182 20.5507 7.75491 20.5679 7.78069 20.5843C7.87995 20.6501 7.98986 20.6982 8.10556 20.7265L8.11793 20.7276L8.12495 20.7306C8.19451 20.7447 8.26531 20.7519 8.33629 20.752C8.34312 20.752 8.34918 20.7487 8.35595 20.7486C8.46307 20.7467 8.56926 20.7283 8.67073 20.6939C8.69434 20.6859 8.71457 20.6724 8.73748 20.6627C8.81315 20.6314 8.88484 20.5912 8.95106 20.543C9.00409 20.4983 9.05714 20.4537 9.1102 20.4091L11.9353 17.2911L16.1488 20.554C16.5198 20.8427 16.9764 20.9996 17.4465 21C17.9391 20.9994 18.4165 20.8295 18.7987 20.5188C19.1809 20.2081 19.4446 19.7755 19.5456 19.2935L22.9567 2.55463C23.034 2.17789 23.0074 1.78723 22.8797 1.42445C22.752 1.06166 22.5281 0.740404 22.2318 0.495041V0.495041ZM8.75085 13.3588C8.60588 13.5031 8.50679 13.687 8.466 13.8874L8.14241 15.4593L7.32269 12.7492L11.5728 10.5368L8.75085 13.3588ZM17.4302 18.9016L12.4509 15.0458C12.2425 14.8849 11.9812 14.8083 11.719 14.8314C11.4567 14.8545 11.2128 14.9755 11.0358 15.1703L10.131 16.1686L10.4508 14.6151L17.8559 7.21264C18.0327 7.03619 18.1404 6.80229 18.1595 6.55331C18.1786 6.30433 18.1079 6.05674 17.9602 5.85538C17.8124 5.65403 17.5974 5.51222 17.3541 5.45565C17.1108 5.39909 16.8553 5.43149 16.6338 5.54701L6.0062 11.0783L2.11245 9.65396L20.9086 2.13717L17.4302 18.9016Z" fill="#008F8C"/>
</svg>
